<svg width="692" height="521" viewBox="0 0 692 521" fill="none" xmlns="http://www.w3.org/2000/svg">
<g clip-path="url(#clip0)">
<path opacity="0.1" d="M582.448 102.085C586.982 145.318 622.31 181.556 655.669 205.851C666.831 213.987 678.883 222.372 685.921 235.753C694.522 252.081 693.009 271.337 687.497 285.951C677.457 312.595 654.99 329.558 629.005 330.082C606.583 330.543 582.56 319.566 560.268 320.818C522.96 322.887 498.407 358.308 482.549 395.823C471.338 422.361 460.47 453.372 435.525 459.988C417.973 464.66 397.157 455.49 379.581 441.573C371.091 434.851 362.72 426.815 353.421 423.881C347.903 422.137 342.44 422.348 337.227 423.102C289.573 430.011 258.095 479.785 209.594 483.293C176.838 485.685 140.962 465.906 111.539 437.816C82.116 409.727 58.1364 373.789 35.4026 337.75C19.246 312.141 2.76546 284.076 0.317682 254.934C-2.3045 224.098 12.1517 198.207 32.5624 185.368C52.973 172.529 78.6529 171.04 104.021 173.806C135.749 177.251 169.632 186.807 197.05 174.547C215.735 166.2 229.182 148.576 243.719 133.214C268.01 107.536 296.281 87.4887 324.652 67.9589C351.808 49.2701 379.462 30.8056 410.605 20.614C432.678 13.3814 456.135 15.8234 478.812 11.6247C493.599 8.88988 505.894 0.41139 521.427 0.0438441C540.561 -0.442065 564.173 7.78724 576.169 32.064C587.592 55.1197 580.037 79.1411 582.448 102.085Z" fill="#A465FF"/>
<path d="M492.098 8.48463L449.557 5.90558L424.942 4.14883V4.10522H424.637H424.295V4.15506L291.934 14.7454H280.959L279.67 60.4395L300.977 67.9524L313.889 133.675L255.136 250.087L219.634 276.999V302.659L240.941 323.316L242.231 417.832L248.69 419.077V418.075L251.935 418.697V419.071L378.03 461.482L383.33 465.077L394.417 458.168L483.733 406.556L492.098 8.48463ZM356.535 302.098L391.078 272.819L356.535 302.098ZM236.731 314.246L246.074 323.322V323.883L236.731 314.246Z" fill="url(#paint0_linear)"/>
<path d="M253.716 325.235L379.531 357.006L360.846 335.825L350.257 322.743L240.014 300.939L235.031 305.3L253.716 325.235Z" fill="#535461"/>
<path d="M235.03 305.3L358.977 333.956L359.6 304.054L324.097 290.349L253.093 278.513H232.539L235.03 305.3Z" fill="#D6D6E3"/>
<path d="M324.72 135.855L451.158 143.954V120.281L442.438 67.3296L438.078 63.5918L311.641 67.3296L324.72 135.855Z" fill="#D6D6E3"/>
<path d="M294.824 16.8696H288.596L287.35 62.3457L307.904 69.8212L320.361 135.232L263.682 251.103L229.425 277.89V303.431L249.979 323.989L251.225 418.056L257.453 419.302L256.208 325.858L235.654 304.054L235.031 277.89L268.042 251.725L325.966 135.855L313.509 69.8212L292.956 61.0998L294.824 16.8696Z" fill="#D6D6E3"/>
<path d="M289.841 16.8696H283.613L282.367 62.3457L302.921 69.8212L315.378 135.232L258.699 251.103L224.442 277.89V303.431L244.996 323.989L246.242 418.056L252.47 419.302L251.225 325.858L230.671 304.054L230.048 277.89L264.304 251.725L320.983 135.855L308.526 69.8212L287.973 61.0998L289.841 16.8696Z" fill="#535461"/>
<path d="M289.53 57.6736L292.644 62.0344L310.084 70.1328L448.355 66.3951L434.964 62.3458L420.639 56.1162L422.507 51.1326L289.53 57.6736Z" fill="#A8A8A8"/>
<path d="M266.173 253.594L392.61 274.152L418.147 219.955L453.026 142.085L324.72 135.855L266.173 253.594Z" fill="#A465FF"/>
<g opacity="0.1">
<path opacity="0.1" d="M331.572 158.282L416.902 165.134L372.68 252.349L289.841 239.889L331.572 158.282Z" fill="white"/>
</g>
<g opacity="0.1">
<path opacity="0.1" d="M337.458 164.617L341.226 164.922L339.276 168.766L335.62 168.218L337.458 164.617Z" fill="white"/>
</g>
<g opacity="0.1">
<path opacity="0.1" d="M338.081 200.749L341.849 201.054L339.899 204.898L336.243 204.349L338.081 200.749Z" fill="white"/>
</g>
<g opacity="0.1">
<path opacity="0.1" d="M358.634 168.978L362.402 169.283L360.453 173.127L356.797 172.578L358.634 168.978Z" fill="white"/>
</g>
<g opacity="0.1">
<path opacity="0.1" d="M397.874 170.847L401.642 171.152L399.692 174.996L396.036 174.447L397.874 170.847Z" fill="white"/>
</g>
<g opacity="0.1">
<path opacity="0.1" d="M344.932 175.83L348.7 176.136L346.75 179.979L343.094 179.431L344.932 175.83Z" fill="white"/>
</g>
<g opacity="0.1">
<path opacity="0.1" d="M358.634 213.831L362.402 214.136L360.453 217.98L356.797 217.432L358.634 213.831Z" fill="white"/>
</g>
<g opacity="0.1">
<path opacity="0.1" d="M325 192.027L328.769 192.333L326.819 196.176L323.163 195.628L325 192.027Z" fill="white"/>
</g>
<g opacity="0.1">
<path opacity="0.1" d="M382.302 168.978L386.07 169.283L384.121 173.127L380.465 172.578L382.302 168.978Z" fill="white"/>
</g>
<g opacity="0.1">
<path opacity="0.1" d="M352.406 190.158L356.174 190.464L354.225 194.307L350.568 193.759L352.406 190.158Z" fill="white"/>
</g>
<g opacity="0.1">
<path opacity="0.1" d="M348.046 166.486L351.814 166.791L349.865 170.635L346.208 170.087L348.046 166.486Z" fill="white"/>
</g>
<g opacity="0.1">
<path opacity="0.1" d="M367.354 188.29L371.122 188.595L369.173 192.438L365.517 191.89L367.354 188.29Z" fill="white"/>
</g>
<g opacity="0.1">
<path opacity="0.1" d="M371.714 168.978L375.483 169.283L373.533 173.127L369.877 172.578L371.714 168.978Z" fill="white"/>
</g>
<g opacity="0.1">
<path opacity="0.1" d="M332.475 177.699L336.243 178.004L334.294 181.848L330.638 181.3L332.475 177.699Z" fill="white"/>
</g>
<path d="M232.539 278.513L355.862 303.431L389.832 273.704L266.484 252.66L232.539 278.513Z" fill="#D6D6E3"/>
<path d="M255.584 322.12V419.302L377.662 461.663L379.531 360.744L374.548 351.356L352.126 345.793L255.584 322.12Z" fill="#535461"/>
<path d="M271.467 264.808C274.391 264.808 276.761 263.413 276.761 261.693C276.761 259.973 274.391 258.578 271.467 258.578C268.543 258.578 266.173 259.973 266.173 261.693C266.173 263.413 268.543 264.808 271.467 264.808Z" fill="#575988"/>
<path d="M275.827 271.66C278.751 271.66 281.121 270.266 281.121 268.545C281.121 266.825 278.751 265.431 275.827 265.431C272.903 265.431 270.533 266.825 270.533 268.545C270.533 270.266 272.903 271.66 275.827 271.66Z" fill="#FA595F"/>
<path d="M260.879 269.791C263.803 269.791 266.173 268.397 266.173 266.677C266.173 264.956 263.803 263.562 260.879 263.562C257.955 263.562 255.584 264.956 255.584 266.677C255.584 268.397 257.955 269.791 260.879 269.791Z" fill="#FFD037"/>
<path d="M328.146 276.021C331.07 276.021 333.44 274.627 333.44 272.906C333.44 271.186 331.07 269.792 328.146 269.792C325.222 269.792 322.852 271.186 322.852 272.906C322.852 274.627 325.222 276.021 328.146 276.021Z" fill="#575988"/>
<path d="M317.558 281.628C320.482 281.628 322.852 280.233 322.852 278.513C322.852 276.792 320.482 275.398 317.558 275.398C314.634 275.398 312.264 276.792 312.264 278.513C312.264 280.233 314.634 281.628 317.558 281.628Z" fill="#FFD037"/>
<path d="M297.627 272.906C301.927 272.906 305.412 271.233 305.412 269.168C305.412 267.104 301.927 265.431 297.627 265.431C293.327 265.431 289.841 267.104 289.841 269.168C289.841 271.233 293.327 272.906 297.627 272.906Z" fill="#A8A8A8"/>
<path d="M333.752 282.874C336.676 282.874 339.046 281.479 339.046 279.759C339.046 278.039 336.676 276.644 333.752 276.644C330.828 276.644 328.458 278.039 328.458 279.759C328.458 281.479 330.828 282.874 333.752 282.874Z" fill="#FA595F"/>
<path d="M299.807 268.552H296.07L292.856 256.142C292.721 255.62 292.707 255.074 292.816 254.546C292.924 254.018 293.152 253.522 293.482 253.095C293.813 252.669 294.236 252.324 294.72 252.086C295.204 251.849 295.736 251.726 296.275 251.726C297.212 251.726 298.11 252.098 298.772 252.76C299.435 253.423 299.807 254.321 299.807 255.258V268.552Z" fill="#A8A8A8"/>
<path d="M353.683 282.873C357.982 282.873 361.468 281.2 361.468 279.136C361.468 277.071 357.982 275.398 353.683 275.398C349.383 275.398 345.897 277.071 345.897 279.136C345.897 281.2 349.383 282.873 353.683 282.873Z" fill="#A8A8A8"/>
<path d="M355.863 278.519H352.126L348.912 266.11C348.777 265.588 348.763 265.042 348.872 264.513C348.98 263.985 349.208 263.489 349.539 263.062C349.869 262.636 350.292 262.291 350.776 262.054C351.26 261.816 351.792 261.693 352.331 261.693C353.268 261.693 354.166 262.065 354.828 262.727C355.491 263.39 355.863 264.288 355.863 265.225V278.519Z" fill="#A8A8A8"/>
<path d="M294.201 16.8699L422.507 6.27954L419.393 53.0015L291.087 59.2311L294.201 16.8699Z" fill="#535461"/>
<path d="M421.884 6.27954L481.055 10.6403L472.958 406.843L382.334 465.089L376.105 460.729L375.794 357.006L355.863 334.579V303.431L390.742 272.906L449.912 141.462L441.504 66.3952H445.864L418.147 56.7393L421.884 6.27954Z" fill="#D6D6E3"/>
<path d="M427.49 6.90234L487.283 10.6401L479.186 406.843L382.022 464.778V357.006L362.091 334.579V303.431L396.971 272.906L456.141 141.462L445.553 66.0835L424.376 56.7391L427.49 6.90234Z" fill="#535461"/>
<path d="M322.298 246.929C313.578 264.995 292.115 260.31 292.115 260.31C291.006 259.282 284.067 257.563 278.804 256.373C275.429 255.607 272.744 255.071 272.744 255.071L280.112 244.798L285.637 245.932L293.877 247.627C293.877 247.627 331.049 228.869 322.298 246.929Z" fill="url(#paint1_linear)"/>
<g opacity="0.08">
<path opacity="0.08" d="M322.298 246.929C313.578 264.995 292.115 260.31 292.115 260.31C291.006 259.282 284.067 257.563 278.804 256.373C275.429 255.607 272.744 255.071 272.744 255.071L280.112 244.798L285.637 245.932L293.877 247.627C293.877 247.627 331.049 228.869 322.298 246.929Z" fill="url(#paint2_linear)"/>
</g>
<g opacity="0.1">
<path opacity="0.1" d="M285.643 245.932L278.792 256.379C275.416 255.613 272.731 255.077 272.731 255.077L280.1 244.804L285.643 245.932Z" fill="url(#paint3_linear)"/>
</g>
<path d="M209.046 208.592C209.046 208.592 241.166 258.796 275.559 258.678L284.902 244.35C284.902 244.35 253.423 221.861 249.238 210.137C247.693 205.776 244.504 199.802 241.103 193.94C230.658 175.98 202.487 187.71 208.678 207.446C208.798 207.836 208.921 208.218 209.046 208.592Z" fill="url(#paint4_linear)"/>
<g opacity="0.05">
<path opacity="0.05" d="M209.046 208.592C209.046 208.592 241.166 258.796 275.559 258.678L284.902 244.35C284.902 244.35 253.423 221.861 249.238 210.137C247.693 205.776 244.504 199.802 241.103 193.94C230.658 175.98 202.487 187.71 208.678 207.446C208.798 207.836 208.921 208.218 209.046 208.592Z" fill="url(#paint5_linear)"/>
</g>
<path d="M188.137 500.405L189.644 517.848C189.644 517.848 238.98 509.65 238.55 493.26C238.12 476.869 188.137 500.405 188.137 500.405Z" fill="url(#paint6_linear)"/>
<g opacity="0.1">
<path opacity="0.1" d="M188.137 500.405L189.644 517.848C189.644 517.848 238.98 509.65 238.55 493.26C238.12 476.869 188.137 500.405 188.137 500.405Z" fill="url(#paint7_linear)"/>
</g>
<path d="M245.875 505.868L245.015 521C245.015 521 313.528 515.954 310.937 501.688C308.346 487.422 272.159 495.359 272.159 495.359L245.875 505.868Z" fill="url(#paint8_linear)"/>
<path d="M246.734 357.915C246.734 357.915 242.686 369.129 237.516 381.974C232.571 394.271 226.604 408.095 222.175 415.078C213.125 429.369 211.836 473.506 211.836 473.506C210.111 480.651 218.731 494.524 218.731 494.524C201.497 512.59 185.552 502.093 185.552 502.093C188.567 496.63 183.397 481.075 183.397 481.075C183.397 481.075 190.292 409.197 194.608 405.833C198.925 402.469 202.363 385.656 202.363 385.656L198.507 328.518L197.623 315.436L234.676 299.046L237.348 312.078L239.995 324.979L246.734 357.915Z" fill="url(#paint9_linear)"/>
<g opacity="0.1">
<path opacity="0.1" d="M246.734 357.915C246.734 357.915 242.686 369.129 237.516 381.974C232.571 394.271 226.604 408.095 222.175 415.078C213.125 429.369 211.836 473.506 211.836 473.506C210.111 480.651 218.731 494.524 218.731 494.524C201.497 512.59 185.552 502.093 185.552 502.093C188.567 496.63 183.397 481.075 183.397 481.075C183.397 481.075 190.292 409.197 194.608 405.833C198.925 402.469 202.363 385.656 202.363 385.656L198.507 328.518L197.623 315.436L234.676 299.046L237.348 312.078L239.995 324.979L246.734 357.915Z" fill="url(#paint10_linear)"/>
</g>
<path d="M279.047 497.047C271.293 510.497 244.168 508.815 244.168 508.815V469.301C244.168 469.301 236.413 425.164 240.724 415.103C245.034 405.042 238.998 386.522 238.998 386.522L237.516 381.98L219.945 327.783L214.851 312.072H273.018C273.018 312.072 273.018 314.763 273.018 319.136C273.093 335.956 273.442 377.638 275.154 387.313C277.31 399.504 271.274 407.491 271.274 407.491C271.274 407.491 274.718 457.091 271.704 472.64C268.689 488.189 279.047 497.047 279.047 497.047Z" fill="url(#paint11_linear)"/>
<path d="M231.225 127.57C231.225 127.57 222.175 151.946 204.081 160.774C185.988 169.601 233.81 172.124 233.81 172.124C233.81 172.124 241.564 153.628 259.228 140.596L231.225 127.57Z" fill="url(#paint12_linear)"/>
<g opacity="0.1">
<path opacity="0.1" d="M273.037 319.161C265.824 320.55 253.062 322.93 239.988 324.998C233.137 326.082 226.211 327.079 219.945 327.801C210.304 328.917 202.238 329.384 198.501 328.512L197.616 315.429L234.669 299.039L237.341 312.072H273.018C273.018 312.072 273.018 314.788 273.037 319.161Z" fill="url(#paint13_linear)"/>
</g>
<path d="M279.047 316.719C279.047 316.719 206.23 331.433 197.187 326.811C188.143 322.189 185.975 310.421 188.566 297.389C191.157 284.356 188.566 251.994 183.827 210.797C181.441 190.053 186.698 176.13 192.515 167.421C195.069 163.667 198.506 160.599 202.525 158.488C206.544 156.377 211.021 155.288 215.561 155.316C223.436 155.284 231.091 157.919 237.279 162.792C239.098 164.243 240.935 165.433 242.436 165.838C243.62 166.156 245.401 167.414 247.419 169.127C256.405 176.868 262.046 187.787 263.158 199.596C263.906 207.427 264.697 217.289 265.083 227.256C265.48 235.768 265.392 244.295 264.821 252.797C264.421 259.022 264.718 265.271 265.706 271.43C269.063 294.143 279.047 316.719 279.047 316.719Z" fill="url(#paint14_linear)"/>
<g opacity="0.1">
<path opacity="0.1" d="M265.712 271.461C239.285 255.376 225.62 210.373 225.62 210.373C225.62 209.981 225.62 209.595 225.576 209.215C224.984 188.576 255.367 184.602 260.524 204.63C262.199 211.152 263.638 217.768 263.937 222.341C264.1 224.023 264.487 225.676 265.089 227.256C265.486 235.768 265.399 244.295 264.828 252.797C264.425 259.032 264.722 265.292 265.712 271.461Z" fill="url(#paint15_linear)"/>
</g>
<g opacity="0.1">
<path opacity="0.1" d="M226.697 142.072C230.995 149.18 234.396 156.338 243.122 157.553C247.406 152.116 252.386 147.265 257.933 143.125L229.905 130.093C229.905 130.093 231.549 134.541 226.697 142.072Z" fill="url(#paint16_linear)"/>
</g>
<path d="M248.459 155.304C264.166 155.304 276.898 142.884 276.898 127.563C276.898 112.243 264.166 99.823 248.459 99.823C232.753 99.823 220.02 112.243 220.02 127.563C220.02 142.884 232.753 155.304 248.459 155.304Z" fill="url(#paint17_linear)"/>
<g opacity="0.1">
<path opacity="0.1" d="M276.568 136.266C277.745 136.316 278.909 136.008 279.907 135.382C281.271 134.391 281.707 132.616 282.018 130.983C282.76 127.127 283.339 123.066 282.018 119.353C281.165 116.898 279.527 114.774 278.381 112.444C275.827 107.355 275.373 101.231 271.729 96.8141C269.456 94.0481 261.464 96.8141 258.126 95.4186C250.951 92.4035 247.837 86.286 240.02 86.2923C237.155 86.2224 234.296 86.5793 231.537 87.3513C228.043 88.429 224.953 90.4661 222.082 92.7025C217.099 96.5773 212.216 101.897 212.658 108.115C212.945 112.083 215.368 115.59 216.794 119.29C219.186 125.52 218.75 132.522 217.024 138.976C216.289 141.723 215.449 145.006 217.398 147.106C218.644 148.42 220.618 148.794 222.381 148.507C224.139 148.118 225.822 147.444 227.364 146.514C230.166 145.025 233.007 143.511 235.274 141.325C236.775 139.879 237.983 138.172 239.41 136.659C242.202 133.764 245.364 131.25 248.814 129.183C251.574 127.526 254.42 128.56 257.316 129.638C263.682 131.974 269.568 136.391 276.568 136.266Z" fill="url(#paint18_linear)"/>
</g>
<path d="M276.138 135.843C277.315 135.893 278.479 135.584 279.477 134.958C280.841 133.967 281.277 132.192 281.588 130.56C282.329 126.704 282.909 122.642 281.588 118.929C280.735 116.475 279.097 114.35 277.951 112.021C275.397 106.931 274.942 100.807 271.299 96.3905C269.025 93.6245 261.464 96.8141 258.126 95.4124C250.95 92.3973 247.406 85.8625 239.59 85.8687C236.725 85.7988 233.866 86.1558 231.107 86.9277C227.612 88.0054 224.523 90.0425 221.652 92.279C216.669 96.1538 211.786 101.474 212.228 107.691C212.515 111.659 214.937 115.166 216.364 118.867C218.756 125.096 218.32 132.099 216.594 138.552C215.859 141.3 215.018 144.583 216.968 146.682C218.214 147.996 220.188 148.37 221.951 148.084C223.709 147.694 225.392 147.021 226.933 146.09C229.736 144.601 232.576 143.088 234.844 140.901C236.345 139.456 237.553 137.749 238.979 136.235C241.772 133.34 244.934 130.827 248.384 128.759C251.143 127.102 253.99 128.137 256.886 129.214C263.252 131.55 269.137 135.967 276.138 135.843Z" fill="url(#paint19_linear)"/>
<g opacity="0.05">
<path opacity="0.05" d="M265.712 271.461C264.724 265.303 264.428 259.053 264.828 252.828C265.399 244.326 265.486 235.799 265.09 227.287C264.703 217.32 263.919 207.458 263.165 199.628C262.047 187.806 256.392 176.879 247.388 169.14C245.389 167.427 243.608 166.162 242.405 165.851C240.904 165.452 239.067 164.256 237.248 162.804C231.132 157.927 238.905 167.427 240.904 169.14C249.909 176.879 255.564 187.806 256.681 199.628C257.429 207.458 258.22 217.32 258.606 227.287C259.002 235.799 258.915 244.326 258.344 252.828C257.944 259.053 258.241 265.303 259.229 271.461C262.579 294.156 272.564 316.719 272.564 316.719C272.564 316.719 223.82 326.568 201.136 327.615C218.912 328.861 279.023 316.719 279.023 316.719C279.023 316.719 269.063 294.143 265.712 271.461Z" fill="url(#paint20_linear)"/>
</g>
<path d="M325.15 275.529C311.79 290.661 292.407 280.575 292.407 280.575C291.616 279.292 285.4 275.834 280.661 273.317C277.615 271.704 275.173 270.483 275.173 270.483L285.083 262.497L290.097 265.026L297.571 268.801C297.571 268.801 338.523 260.397 325.15 275.529Z" fill="url(#paint21_linear)"/>
<g opacity="0.1">
<path opacity="0.1" d="M290.097 265.026L280.661 273.317C277.615 271.704 275.173 270.483 275.173 270.483L285.083 262.497L290.097 265.026Z" fill="url(#paint22_linear)"/>
</g>
<path d="M226.485 209.115C226.485 209.115 243.719 265.86 276.898 274.688L289.822 263.337C289.822 263.337 265.65 233.473 264.803 221.082C264.497 216.503 263.065 209.869 261.389 203.371C256.232 183.349 225.85 187.318 226.442 207.956C226.454 208.338 226.469 208.725 226.485 209.115Z" fill="url(#paint23_linear)"/>
<path opacity="0.05" d="M193.095 264.39C193.095 264.39 204.306 255.563 214.639 262.291C224.972 269.019 240.057 268.178 242.212 268.595" fill="url(#paint24_linear)"/>
<path d="M319.071 246.007C310.756 263.624 290.346 259.089 290.346 259.089C289.287 258.086 282.685 256.41 277.683 255.252C274.469 254.504 271.916 254.006 271.916 254.006L278.929 243.982L284.186 245.091L292.027 246.742C292.027 246.742 327.386 228.383 319.071 246.007Z" fill="#F7C4A7"/>
<path opacity="0.08" d="M319.071 246.007C310.756 263.624 290.346 259.089 290.346 259.089C289.287 258.086 282.685 256.41 277.683 255.252C274.469 254.504 271.916 254.006 271.916 254.006L278.929 243.982L284.186 245.091L292.027 246.742C292.027 246.742 327.386 228.383 319.071 246.007Z" fill="black"/>
<path opacity="0.1" d="M284.186 245.029L277.683 255.221C274.469 254.473 271.916 253.975 271.916 253.975L278.929 243.951L284.186 245.029Z" fill="black"/>
<path d="M211.294 208.598C211.294 208.598 241.863 257.588 274.588 257.463L283.488 243.509C283.488 243.509 253.536 221.568 249.549 210.124C248.079 205.901 245.046 200.045 241.814 194.339C231.848 176.821 205.066 188.265 210.952 207.52C211.064 207.873 211.178 208.233 211.294 208.598Z" fill="#575988"/>
<path opacity="0.05" d="M211.294 208.598C211.294 208.598 241.863 257.588 274.588 257.463L283.488 243.509C283.488 243.509 253.536 221.568 249.549 210.124C248.079 205.901 245.046 200.045 241.814 194.339C231.848 176.821 205.066 188.265 210.952 207.52C211.064 207.873 211.178 208.233 211.294 208.598Z" fill="black"/>
<path d="M191.394 493.322L192.827 510.341C192.827 510.341 239.777 502.342 239.366 486.351C238.955 470.36 191.394 493.322 191.394 493.322Z" fill="#535461"/>
<path opacity="0.1" d="M191.394 493.322L192.827 510.341C192.827 510.341 239.777 502.342 239.366 486.351C238.955 470.36 191.394 493.322 191.394 493.322Z" fill="black"/>
<path d="M246.342 498.654L245.52 513.425C245.52 513.425 310.719 508.503 308.259 494.562C305.799 480.62 271.355 488.407 271.355 488.407L246.342 498.654Z" fill="#535461"/>
<path d="M247.158 354.29C247.158 354.29 243.302 365.216 238.382 377.763C233.673 389.761 227.993 403.248 223.782 410.063C215.199 424.011 213.954 467.07 213.954 467.07C212.316 474.041 220.512 487.578 220.512 487.578C204.113 505.214 188.94 494.96 188.94 494.96C191.812 489.628 186.891 474.452 186.891 474.452C186.891 474.452 193.45 404.32 197.554 401.043C201.659 397.766 204.929 381.357 204.929 381.357L201.26 325.609L200.419 312.869L235.685 296.872L238.245 309.586L240.736 322.176L247.158 354.29Z" fill="#6A5C99"/>
<path opacity="0.1" d="M247.158 354.29C247.158 354.29 243.302 365.216 238.382 377.763C233.673 389.761 227.993 403.248 223.782 410.063C215.199 424.011 213.954 467.07 213.954 467.07C212.316 474.041 220.512 487.578 220.512 487.578C204.113 505.214 188.94 494.96 188.94 494.96C191.812 489.628 186.891 474.452 186.891 474.452C186.891 474.452 193.45 404.32 197.554 401.043C201.659 397.766 204.929 381.357 204.929 381.357L201.26 325.609L200.419 312.869L235.685 296.872L238.245 309.586L240.736 322.176L247.158 354.29Z" fill="black"/>
<path d="M277.914 490.039C270.533 503.165 244.697 501.52 244.697 501.52V462.965C244.697 462.965 237.317 419.9 241.415 410.057C245.513 400.214 239.777 382.167 239.777 382.167L238.382 377.757L221.658 324.905L216.812 309.58H272.171C272.171 309.58 272.171 312.202 272.171 316.476C272.24 332.878 272.576 373.558 274.208 382.996C276.257 394.888 270.514 402.681 270.514 402.681C270.514 402.681 273.797 451.073 270.925 466.223C268.054 481.373 277.914 490.039 277.914 490.039Z" fill="#6A5C99"/>
<path d="M232.396 129.544C232.396 129.544 223.782 153.329 206.561 161.938C189.339 170.548 234.856 173.015 234.856 173.015C234.856 173.015 242.237 154.949 259.048 142.253L232.396 129.544Z" fill="#F7C4A7"/>
<path opacity="0.1" d="M272.19 316.482C265.326 317.815 253.193 320.158 240.736 322.176C234.221 323.235 227.625 324.207 221.658 324.911C212.484 325.995 204.804 326.456 201.248 325.602L200.407 312.863L235.672 296.865L238.245 309.586H272.196C272.196 309.586 272.171 312.209 272.19 316.482Z" fill="black"/>
<path d="M277.914 314.078C277.914 314.078 208.616 328.406 200.008 323.92C191.401 319.435 189.345 307.923 191.805 295.214C194.266 282.506 191.805 250.922 187.296 210.729C185.023 190.489 190.03 176.908 195.561 168.405C197.943 164.764 201.196 161.775 205.024 159.709C208.852 157.642 213.135 156.563 217.485 156.569C225.007 156.542 232.307 159.115 238.151 163.851C239.883 165.265 241.633 166.43 243.059 166.822C244.187 167.128 245.881 168.361 247.781 170.031C256.395 177.669 261.766 188.309 262.797 199.777C263.514 207.415 264.261 217.039 264.628 226.77C265.008 235.074 264.927 243.393 264.386 251.688C264.005 257.76 264.286 263.855 265.226 269.866C268.409 292.081 277.914 314.078 277.914 314.078Z" fill="#575988"/>
<path opacity="0.1" d="M265.22 269.941C240.069 254.249 227.064 210.336 227.064 210.336C227.064 209.956 227.064 209.576 227.021 209.209C226.46 189.075 255.373 185.194 260.281 204.736C261.875 211.102 263.239 217.55 263.526 222.017C263.68 223.657 264.049 225.269 264.622 226.813C265.001 235.118 264.92 243.437 264.379 251.732C263.996 257.814 264.278 263.92 265.22 269.941Z" fill="black"/>
<path opacity="0.1" d="M228.092 143.692C232.178 150.626 235.417 157.615 243.726 158.793C247.787 153.502 252.526 148.769 257.821 144.714L231.169 131.999C231.169 131.999 232.708 136.347 228.092 143.692Z" fill="black"/>
<path d="M248.802 156.612C263.748 156.612 275.865 144.493 275.865 129.544C275.865 114.595 263.748 102.477 248.802 102.477C233.856 102.477 221.739 114.595 221.739 129.544C221.739 144.493 233.856 156.612 248.802 156.612Z" fill="#F7C4A7"/>
<path opacity="0.1" d="M275.553 138.029C276.677 138.074 277.786 137.77 278.729 137.157C280.025 136.191 280.442 134.453 280.735 132.865C281.439 129.127 281.981 125.14 280.735 121.514C279.925 119.116 278.387 117.048 277.272 114.774C274.837 109.79 274.407 103.835 270.944 99.524C268.776 96.8266 261.178 99.524 257.995 98.1597C251.144 95.2193 248.204 89.2514 240.767 89.2576C238.031 89.1875 235.301 89.5362 232.67 90.2917C229.344 91.3383 226.404 93.3442 223.676 95.5121C218.918 99.2935 214.284 104.483 214.707 110.55C214.981 114.425 217.286 117.814 218.644 121.452C220.923 127.545 220.512 134.366 218.862 140.658C218.164 143.337 217.36 146.539 219.217 148.595C220.375 149.872 222.281 150.245 223.981 149.959C225.666 149.58 227.277 148.923 228.746 148.015C231.412 146.564 234.115 145.087 236.27 142.957C237.696 141.543 238.849 139.879 240.206 138.403C242.854 135.586 245.864 133.133 249.157 131.108C251.785 129.495 254.482 130.485 257.254 131.55C263.289 133.843 268.888 138.154 275.553 138.029Z" fill="black"/>
<path d="M275.142 137.618C276.264 137.667 277.374 137.367 278.318 136.758C279.614 135.793 280.031 134.055 280.324 132.466C281.028 128.728 281.57 124.742 280.324 121.116C279.514 118.718 277.976 116.649 276.861 114.375C274.426 109.392 273.996 103.436 270.533 99.1254C268.365 96.428 261.19 99.5428 257.995 98.1723C251.144 95.2319 247.793 88.8279 240.356 88.8279C237.62 88.7578 234.889 89.1065 232.259 89.862C228.933 90.9086 225.993 92.9145 223.265 95.0824C218.506 98.8638 213.872 104.053 214.296 110.121C214.57 113.995 216.875 117.384 218.232 121.022C220.512 127.115 220.101 133.936 218.45 140.228C217.753 142.907 216.949 146.109 218.805 148.165C219.964 149.442 221.87 149.816 223.57 149.529C225.255 149.15 226.865 148.493 228.335 147.585C231.001 146.134 233.704 144.658 235.859 142.527C237.285 141.113 238.438 139.45 239.795 137.973C242.472 135.159 245.511 132.714 248.833 130.703C251.461 129.09 254.158 130.08 256.93 131.146C262.878 133.419 268.477 137.743 275.142 137.618Z" fill="#632652"/>
<path opacity="0.05" d="M265.22 269.941C264.29 263.935 264.016 257.846 264.404 251.782C264.945 243.486 265.026 235.168 264.647 226.863C264.279 217.133 263.532 207.514 262.816 199.87C261.785 188.403 256.413 177.762 247.799 170.124C245.899 168.448 244.205 167.221 243.078 166.916C241.651 166.523 239.901 165.358 238.17 163.944C232.346 159.185 239.746 168.455 241.651 170.124C250.265 177.762 255.637 188.403 256.668 199.87C257.385 207.508 258.132 217.133 258.499 226.863C258.879 235.168 258.798 243.486 258.257 251.782C257.875 257.854 258.157 263.949 259.097 269.96C262.286 292.1 271.791 314.115 271.791 314.115C271.791 314.115 225.401 323.721 203.82 324.749C220.736 325.995 277.938 314.115 277.938 314.115C277.938 314.115 268.409 292.081 265.22 269.941Z" fill="black"/>
<path d="M321.787 273.909C309.075 288.673 290.645 278.831 290.645 278.831C289.897 277.585 283.98 274.202 279.433 271.754C276.537 270.178 274.214 268.988 274.214 268.988L283.644 261.195L288.415 263.686L295.546 267.356C295.546 267.356 334.499 259.145 321.787 273.909Z" fill="#F7C4A7"/>
<path opacity="0.1" d="M288.427 263.662L279.446 271.76C276.55 270.184 274.227 268.994 274.227 268.994L283.656 261.201L288.427 263.662Z" fill="black"/>
<path d="M227.887 209.109C227.887 209.109 244.286 264.478 275.846 273.087L288.147 262.011C288.147 262.011 265.102 232.875 264.335 220.783C264.043 216.317 262.685 209.863 261.084 203.502C256.176 183.966 227.264 187.841 227.83 207.975C227.851 208.349 227.87 208.727 227.887 209.109Z" fill="#575988"/>
<path opacity="0.05" d="M196.109 263.039C196.109 263.039 206.772 254.423 216.613 260.989C226.454 267.555 240.804 266.733 242.853 267.144" fill="black"/>
</g>
<defs>
<linearGradient id="paint0_linear" x1="355.863" y1="465.096" x2="355.863" y2="4.10522" gradientUnits="userSpaceOnUse">
<stop stop-color="#808080" stop-opacity="0.25"/>
<stop offset="0.54" stop-color="#808080" stop-opacity="0.12"/>
<stop offset="1" stop-color="#808080" stop-opacity="0.1"/>
</linearGradient>
<linearGradient id="paint1_linear" x1="26899.1" y1="10051.2" x2="26899.1" y2="9289.83" gradientUnits="userSpaceOnUse">
<stop stop-color="#808080" stop-opacity="0.25"/>
<stop offset="0.54" stop-color="#808080" stop-opacity="0.12"/>
<stop offset="1" stop-color="#808080" stop-opacity="0.1"/>
</linearGradient>
<linearGradient id="paint2_linear" x1="26899.1" y1="10051.2" x2="26899.1" y2="9289.83" gradientUnits="userSpaceOnUse">
<stop stop-color="#808080" stop-opacity="0.25"/>
<stop offset="0.54" stop-color="#808080" stop-opacity="0.12"/>
<stop offset="1" stop-color="#808080" stop-opacity="0.1"/>
</linearGradient>
<linearGradient id="paint3_linear" x1="6634.92" y1="5376.63" x2="6634.92" y2="5161.58" gradientUnits="userSpaceOnUse">
<stop stop-color="#808080" stop-opacity="0.25"/>
<stop offset="0.54" stop-color="#808080" stop-opacity="0.12"/>
<stop offset="1" stop-color="#808080" stop-opacity="0.1"/>
</linearGradient>
<linearGradient id="paint4_linear" x1="34135.5" y1="33095.7" x2="34135.5" y2="24401.7" gradientUnits="userSpaceOnUse">
<stop stop-color="#808080" stop-opacity="0.25"/>
<stop offset="0.54" stop-color="#808080" stop-opacity="0.12"/>
<stop offset="1" stop-color="#808080" stop-opacity="0.1"/>
</linearGradient>
<linearGradient id="paint5_linear" x1="34135.5" y1="33095.7" x2="34135.5" y2="24401.7" gradientUnits="userSpaceOnUse">
<stop stop-color="#808080" stop-opacity="0.25"/>
<stop offset="0.54" stop-color="#808080" stop-opacity="0.12"/>
<stop offset="1" stop-color="#808080" stop-opacity="0.1"/>
</linearGradient>
<linearGradient id="paint6_linear" x1="19700.1" y1="26718.4" x2="19700.1" y2="25235.6" gradientUnits="userSpaceOnUse">
<stop stop-color="#808080" stop-opacity="0.25"/>
<stop offset="0.54" stop-color="#808080" stop-opacity="0.12"/>
<stop offset="1" stop-color="#808080" stop-opacity="0.1"/>
</linearGradient>
<linearGradient id="paint7_linear" x1="19700.1" y1="26718.4" x2="19700.1" y2="25235.6" gradientUnits="userSpaceOnUse">
<stop stop-color="#808080" stop-opacity="0.25"/>
<stop offset="0.54" stop-color="#808080" stop-opacity="0.12"/>
<stop offset="1" stop-color="#808080" stop-opacity="0.1"/>
</linearGradient>
<linearGradient id="paint8_linear" x1="32637.3" y1="24665.1" x2="32637.3" y2="23419.7" gradientUnits="userSpaceOnUse">
<stop stop-color="#808080" stop-opacity="0.25"/>
<stop offset="0.54" stop-color="#808080" stop-opacity="0.12"/>
<stop offset="1" stop-color="#808080" stop-opacity="0.1"/>
</linearGradient>
<linearGradient id="paint9_linear" x1="24871.6" y1="173958" x2="24871.6" y2="105791" gradientUnits="userSpaceOnUse">
<stop stop-color="#808080" stop-opacity="0.25"/>
<stop offset="0.54" stop-color="#808080" stop-opacity="0.12"/>
<stop offset="1" stop-color="#808080" stop-opacity="0.1"/>
</linearGradient>
<linearGradient id="paint10_linear" x1="24871.6" y1="173958" x2="24871.6" y2="105791" gradientUnits="userSpaceOnUse">
<stop stop-color="#808080" stop-opacity="0.25"/>
<stop offset="0.54" stop-color="#808080" stop-opacity="0.12"/>
<stop offset="1" stop-color="#808080" stop-opacity="0.1"/>
</linearGradient>
<linearGradient id="paint11_linear" x1="28524.3" y1="167347" x2="28524.3" y2="105177" gradientUnits="userSpaceOnUse">
<stop stop-color="#808080" stop-opacity="0.25"/>
<stop offset="0.54" stop-color="#808080" stop-opacity="0.12"/>
<stop offset="1" stop-color="#808080" stop-opacity="0.1"/>
</linearGradient>
<linearGradient id="paint12_linear" x1="24672.5" y1="13856" x2="24672.5" y2="10669.5" gradientUnits="userSpaceOnUse">
<stop stop-color="#808080" stop-opacity="0.25"/>
<stop offset="0.54" stop-color="#808080" stop-opacity="0.12"/>
<stop offset="1" stop-color="#808080" stop-opacity="0.1"/>
</linearGradient>
<linearGradient id="paint13_linear" x1="32048.4" y1="17054.4" x2="32048.4" y2="15618" gradientUnits="userSpaceOnUse">
<stop stop-color="#808080" stop-opacity="0.25"/>
<stop offset="0.54" stop-color="#808080" stop-opacity="0.12"/>
<stop offset="1" stop-color="#808080" stop-opacity="0.1"/>
</linearGradient>
<linearGradient id="paint14_linear" x1="40001.6" y1="96330.4" x2="40001.6" y2="48622.1" gradientUnits="userSpaceOnUse">
<stop stop-color="#808080" stop-opacity="0.25"/>
<stop offset="0.54" stop-color="#808080" stop-opacity="0.12"/>
<stop offset="1" stop-color="#808080" stop-opacity="0.1"/>
</linearGradient>
<linearGradient id="paint15_linear" x1="17844.3" y1="37578.4" x2="17844.3" y2="27316.8" gradientUnits="userSpaceOnUse">
<stop stop-color="#808080" stop-opacity="0.25"/>
<stop offset="0.54" stop-color="#808080" stop-opacity="0.12"/>
<stop offset="1" stop-color="#808080" stop-opacity="0.1"/>
</linearGradient>
<linearGradient id="paint16_linear" x1="13768.6" y1="7948.8" x2="13768.6" y2="6738.63" gradientUnits="userSpaceOnUse">
<stop stop-color="#808080" stop-opacity="0.25"/>
<stop offset="0.54" stop-color="#808080" stop-opacity="0.12"/>
<stop offset="1" stop-color="#808080" stop-opacity="0.1"/>
</linearGradient>
<linearGradient id="paint17_linear" x1="22909.3" y1="13931.7" x2="22909.3" y2="8990.07" gradientUnits="userSpaceOnUse">
<stop stop-color="#808080" stop-opacity="0.25"/>
<stop offset="0.54" stop-color="#808080" stop-opacity="0.12"/>
<stop offset="1" stop-color="#808080" stop-opacity="0.1"/>
</linearGradient>
<linearGradient id="paint18_linear" x1="31247.2" y1="16932.9" x2="31247.2" y2="10700.9" gradientUnits="userSpaceOnUse">
<stop stop-color="#808080" stop-opacity="0.25"/>
<stop offset="0.54" stop-color="#808080" stop-opacity="0.12"/>
<stop offset="1" stop-color="#808080" stop-opacity="0.1"/>
</linearGradient>
<linearGradient id="paint19_linear" x1="31197.6" y1="16890.7" x2="31197.6" y2="10658.7" gradientUnits="userSpaceOnUse">
<stop stop-color="#808080" stop-opacity="0.25"/>
<stop offset="0.54" stop-color="#808080" stop-opacity="0.12"/>
<stop offset="1" stop-color="#808080" stop-opacity="0.1"/>
</linearGradient>
<linearGradient id="paint20_linear" x1="33691.7" y1="92924.9" x2="33691.7" y2="48533.5" gradientUnits="userSpaceOnUse">
<stop stop-color="#808080" stop-opacity="0.25"/>
<stop offset="0.54" stop-color="#808080" stop-opacity="0.12"/>
<stop offset="1" stop-color="#808080" stop-opacity="0.1"/>
</linearGradient>
<linearGradient id="paint21_linear" x1="28109.5" y1="10680.8" x2="28109.5" y2="9947.82" gradientUnits="userSpaceOnUse">
<stop stop-color="#808080" stop-opacity="0.25"/>
<stop offset="0.54" stop-color="#808080" stop-opacity="0.12"/>
<stop offset="1" stop-color="#808080" stop-opacity="0.1"/>
</linearGradient>
<linearGradient id="paint22_linear" x1="7711.04" y1="5354.44" x2="7711.04" y2="5166.48" gradientUnits="userSpaceOnUse">
<stop stop-color="#808080" stop-opacity="0.25"/>
<stop offset="0.54" stop-color="#808080" stop-opacity="0.12"/>
<stop offset="1" stop-color="#808080" stop-opacity="0.1"/>
</linearGradient>
<linearGradient id="paint23_linear" x1="29317" y1="40110.6" x2="29317" y2="28665.7" gradientUnits="userSpaceOnUse">
<stop stop-color="#808080" stop-opacity="0.25"/>
<stop offset="0.54" stop-color="#808080" stop-opacity="0.12"/>
<stop offset="1" stop-color="#808080" stop-opacity="0.1"/>
</linearGradient>
<linearGradient id="paint24_linear" x1="19542.5" y1="4349.23" x2="19542.5" y2="4224.06" gradientUnits="userSpaceOnUse">
<stop stop-color="#808080" stop-opacity="0.25"/>
<stop offset="0.54" stop-color="#808080" stop-opacity="0.12"/>
<stop offset="1" stop-color="#808080" stop-opacity="0.1"/>
</linearGradient>
<clipPath id="clip0">
<rect width="692" height="521" fill="white"/>
</clipPath>
</defs>
</svg>
